<svg width="451" height="891" viewBox="0 0 451 891" fill="none" xmlns="http://www.w3.org/2000/svg">
<path opacity="0.1" fill-rule="evenodd" clip-rule="evenodd" d="M451.001 892C700.081 892 902 692.32 902 446.001C902 381.655 888.222 320.493 863.423 265.242L731.051 413.854C743.565 520.922 692.317 630.093 591.922 687.413C491.496 744.752 370.22 734.031 282.709 669.724L86.5543 708.777C168.583 819.845 301.271 892 451.001 892ZM38.5849 626.776C13.7814 571.52 0 510.351 0 446.001C0 199.68 201.919 0 451.001 0C600.71 0 733.382 72.1366 815.414 183.178L619.166 222.222C531.662 157.978 410.437 147.285 310.047 204.603C209.629 261.938 158.379 371.145 170.927 478.237L38.5849 626.776Z" fill="white"/>
</svg>
