<svg width="229" height="38" viewBox="0 0 229 38" fill="none" xmlns="http://www.w3.org/2000/svg">
<g clip-path="url(#clip0_419_13230)">
<path d="M215.805 25.3264C215.003 24.5036 214.359 23.578 213.89 22.494C213.422 21.4101 213.175 20.2787 213.175 19.084C213.175 17.8656 213.422 16.7184 213.89 15.6265C214.359 14.5664 215.003 13.6328 215.805 12.8337C216.632 12.0109 217.562 11.3937 218.65 10.9269C219.715 10.4601 220.875 10.2149 222.099 10.2149C223.322 10.2149 224.475 10.4364 225.547 10.9032C226.612 11.37 227.574 12.0109 228.392 12.8257L226.279 14.8828C225.103 13.7277 223.696 13.1818 222.099 13.1818C221.273 13.1818 220.502 13.34 219.786 13.6248C219.055 13.9334 218.428 14.3528 217.895 14.9066C217.363 15.4367 216.942 16.0617 216.624 16.7659C216.314 17.4937 216.155 18.2454 216.155 19.0682C216.155 19.891 216.314 20.6427 216.624 21.3705C216.934 22.0826 217.355 22.6997 217.911 23.2298C218.443 23.7836 219.071 24.203 219.778 24.5116C220.51 24.7964 221.265 24.9546 222.091 24.9546L225.54 27.2332C224.475 27.7 223.315 27.9215 222.091 27.9215C220.867 27.9215 219.715 27.6763 218.642 27.2095C217.562 26.7585 216.632 26.1177 215.805 25.3264Z" fill="#1E1E1E"/>
<path d="M65.8147 10.2164V20.8183L53.9989 10.2164V13.1913V14.6866V25.0037L56.9549 27.9231V17.3371L68.771 27.9231V27.8994V27.8757V10.2164H65.8147Z" fill="#1E1E1E"/>
<path d="M189.693 10.2149V20.8167L177.869 10.2149V13.1897V14.685V25.0021L180.825 27.9215V17.3355L192.641 27.9215V27.8978V27.8741V10.2149H189.693Z" fill="#1E1E1E"/>
<path d="M201.43 13.1855L204.386 10.2186V27.9173L201.43 24.9979V13.1855Z" fill="#1E1E1E"/>
<path d="M119.136 10.2149H110.283H109.973H101.121L104.054 13.158H108.646V16.6788V27.9215H111.602V16.6788V13.158H116.203L119.136 10.2149Z" fill="#1E1E1E"/>
<path d="M77.5681 17.5964V20.5396H81.2473H92.3325V17.5964H81.2473H77.5681Z" fill="#1E1E1E"/>
<path d="M86.7299 10.2149H83.2102H77.5601L80.4921 13.158H83.2102H86.7299H92.3319V10.2149H86.7299Z" fill="#1E1E1E"/>
<path d="M83.2102 24.9778H80.4921L77.5601 27.921H83.2102H86.7299H92.3319V24.9778H86.7299H83.2102Z" fill="#1E1E1E"/>
<path d="M140.869 20.7139C142.092 19.5271 142.713 18.0634 142.713 16.3702C142.713 14.685 142.092 13.2292 140.877 12.0266C139.669 10.824 138.199 10.2149 136.514 10.2149H135.982H127.933L130.865 13.158H136.038H136.507C137.405 13.158 138.151 13.4666 138.787 14.0996C139.422 14.7325 139.733 15.4762 139.733 16.3702C139.733 17.2722 139.422 18.0239 138.787 18.6568C138.167 19.2739 137.436 19.5746 136.554 19.5824H130.857L127.925 22.5257H133.67L138.604 27.9215H142.696L137.643 22.4228C138.867 22.2013 139.947 21.6316 140.869 20.7139Z" fill="#1E1E1E"/>
<path fill-rule="evenodd" clip-rule="evenodd" d="M160.291 27.9294C165.145 27.9294 169.08 23.962 169.08 19.068C169.08 17.8869 168.85 16.7597 168.435 15.7292L166.112 18.3872C166.373 20.6564 165.307 22.9702 163.22 24.185C161.132 25.4002 158.612 25.173 156.792 23.8102L153.353 24.5084C154.961 26.5903 157.471 27.9294 160.291 27.9294ZM152.147 22.4085C151.731 21.3776 151.502 20.2498 151.502 19.068C151.502 14.174 155.437 10.2067 160.291 10.2067C163.111 10.2067 165.621 11.5459 167.229 13.6278L163.786 14.3261C161.967 12.9647 159.448 12.7381 157.361 13.9528C155.274 15.1679 154.208 17.4823 154.469 19.7519L152.147 22.4085Z" fill="#1E1E1E"/>
<path fill-rule="evenodd" clip-rule="evenodd" d="M17.9102 36.9972C27.8018 36.9972 35.8204 28.9126 35.8204 18.9398C35.8204 16.3346 35.2733 13.8583 34.2885 11.6213L29.0317 17.6383C29.5286 21.9732 27.4934 26.3932 23.5065 28.714C19.5184 31.0355 14.7023 30.6014 11.227 27.9978L3.43726 29.579C6.69479 34.0758 11.9642 36.9972 17.9102 36.9972ZM1.53229 26.2589C0.547291 24.0217 0 21.5452 0 18.9398C0 8.96692 8.01865 0.882355 17.9102 0.882355C23.8555 0.882355 29.1242 3.80298 32.3819 8.29878L24.5884 9.87958C21.1135 7.27847 16.2994 6.84557 12.3127 9.16621C8.32484 11.4875 6.2896 15.9091 6.78789 20.245L1.53229 26.2589Z" fill="#0090FF"/>
</g>
<defs>
<clipPath id="clip0_419_13230">
<rect width="228.392" height="36.2353" fill="white" transform="translate(0 0.882355)"/>
</clipPath>
</defs>
</svg>
